<svg xmlns="http://www.w3.org/2000/svg" width="744.094" height="379.134" xmlns:v="https://vecta.io/nano"><g fill-rule="evenodd"><path d="M369.976 17.651l356.402 175.13-356.402 168.702L17.717 192.781l352.259-175.13" fill="#ec1b24"/><path d="M176.134 188.496l24.998-43.711h22.998l-27.141 41.711 27.141 45.854h-25.141l-22.855-43.854" fill="#fff"/></g><path d="M153.135 232.349h22.998v-87.565h-22.998v87.565z" fill="#fff"/><path d="M305.267 232.349h-18.713l-27.141-47.996v47.996H238.7v-87.565h20.713l22.998 41.711 2.143-41.711h20.713v87.565" fill="#fff" fill-rule="evenodd"/><path d="M330.408 232.349h24.998v-87.565h-24.998v87.565z" fill="#fff"/><g fill-rule="evenodd"><path d="M440.828 173.925c0 8.428-2.143 14.57-6.285 18.856-4.143 6.285-12.428 12.428-24.998 12.428h-12.57v27.141h-20.713v-87.565h29.141c10.428 0 24.998 4.143 29.141 10.428 4.143 4.143 6.285 10.428 6.285 18.713zm-18.713 0c0-6.142-8.428-12.428-16.713-12.428h-8.428v26.998h8.428c8.285 0 16.713-8.285 16.713-14.57m83.28 58.424h-54.139v-87.565h54.139v16.713h-31.283v16.713h27.141v16.57h-27.141v18.856h31.283v18.713m93.85 0h-22.998l-16.57-31.283-18.856 31.283h-22.855l24.998-45.854-22.998-41.711h24.998l14.713 27.141 12.428-27.141h22.998l-22.998 41.711 27.141 45.854" fill="#fff"/><path d="M592.96 86.075c0 9.856 7.999 17.999 17.999 17.999s17.999-8.142 17.999-17.999-7.999-17.999-17.999-17.999-17.999 8.142-17.999 17.999zm3.428 0c0-8.428 6.571-15.285 14.57-15.285s14.57 6.857 14.57 15.285-6.428 15.285-14.57 15.285c-7.999 0-14.57-6.857-14.57-15.285zm7.999 8.856h3.285v-7.428h2.714c3.857 0 3.857 1.714 4 3.285.143 3 0 3.428.714 4.143h3.285c-.571-1-.429-1.571-.571-4.285-.143-1.857-.286-3.857-2.714-4.285v-.143c2.714-1 3.143-2.857 3.143-4.143 0-4.571-4-5.142-6-5.142h-7.857v17.999zm3.285-15.57h3.428c2.286 0 3.714.571 3.714 2.714 0 1.286-.571 2.857-3.285 2.857h-3.857v-5.571" fill="#231f20"/></g></svg>