<svg width="300" height="250" xmlns="http://www.w3.org/2000/svg" viewBox="0 0 652 652" xmlns:v="https://vecta.io/nano"><path d="M71.666 321.058L321.696 71.028l250.031 250.031-250.031 250.031z"/><path d="M446.8 196.2L321.6 71.1 196.5 196.2l.2-.2 41.6 41.5H405l41.6-41.5" fill="#ef1923"/><path d="M257.1 343.8v-64.4h24.7v58.5c0 3.5 2 5.3 5.9 5.3h31.2c3.9 0 5.8-1.8 5.8-5.3v-58.5h24.7v64.4c0 5.9-2 10.6-5.8 14.2-3.9 3.5-9.1 5.3-15.6 5.3h-49.5c-6.5 0-11.7-1.8-15.6-5.3-3.9-3.6-5.8-8.3-5.8-14.2M387.9 329h34.5c3.9 0 5.9 1.8 5.9 5.3v4.7c0 3.5-2 5.3-5.9 5.3h-34.5V329zm0-31.9h31.8c3.9 0 5.9 1.8 5.9 5.3v3.5c0 3.5-2 5.3-5.9 5.3h-31.8v-14.1zm43.6 65c6.5 0 11.7-1.8 15.6-5.3s5.9-8.3 5.9-14.2v-5.9c0-2.8-.5-5.4-1.6-7.6-1.1-2.3-2.3-3.9-3.6-5.1-1.3-1.1-2.8-2.1-4.6-2.8-1.7-.7-2.9-1.2-3.6-1.3s-1.2-.2-1.6-.3v-1.2l1.3-.3c.8-.2 1.9-.7 3.1-1.4s2.4-1.6 3.6-2.8c1.2-1.1 2.2-2.7 3-4.8.9-2.1 1.3-4.5 1.3-7.2v-3c0-5.9-1.9-10.6-5.8-14.2s-9.1-5.3-15.6-5.3h-65.7v82.7h68.3zm32.5 0h24.7v-82.7H464v82.7zm-249.8-44.4c3.9 0 5.9-1.8 5.9-5.3v-7.6c0-3.5-2-5.3-5.9-5.3h-34.5v18.2h34.5zm32.5 33.1V362h-22.5l-24.3-24.3h-20.1V362H155v-82.7h68.3c6.5 0 11.7 1.8 15.6 5.3 3.9 3.6 5.8 8.3 5.8 14.2v19.4c0 3-.6 5.7-1.7 8s-2.5 4-4.1 5.2-3.2 2.1-4.7 2.9c-1.1.5-2.1.9-3 1.1l15 15 .5.4z" fill="#fff"/></svg>