<svg width="300" height="250" xmlns="http://www.w3.org/2000/svg" xml:space="preserve" id="layer" x="0" y="0" version="1.1" viewBox="0 0 652 652"><style>.st1{fill:#fff}</style><path d="M620 438.5c0 17-13.7 30.7-30.7 30.7H50.7c-17 0-30.7-13.8-30.7-30.7v-233c0-17 13.7-30.7 30.7-30.7h538.6c17 0 30.7 13.7 30.7 30.7z" style="fill:#cf0a2c"/><path d="M136.9 346.8c2.4 0 6-3.5 6-6v-17.5c0-4.7-4.4-9.1-9.1-9.1h-28.5c-15.3 0-29.2-13.7-29.2-29v-25.4c0-15.3 14-29 29.2-29h65.4v28.1l-57.1.1c-3.8 0-5.9 1.9-5.9 6v15.9c0 4.3 2.4 6 5.9 6h28.3c15.3 0 30.8 12.1 30.8 27.4v32.1c0 15.3-14.7 27.4-27.6 27.4H76V347h60.9zM208.8 288.2h57.5v26.7h-57.5v25.2c0 4 2.2 6 5.9 6l51.6-.1v28.2h-58.4c-15.3 0-29.2-13.7-29.2-29v-85.3c0-15.3 14-29 29.2-29h58.4V259l-51.6.1c-3.8 0-5.9 1.9-5.9 6zM338.7 367.9c4.1 6.5 13 6.2 13 6.2h20V230.8h-31v74L305.1 237c-4-6.6-13-6.2-13-6.2h-19.9v143.3h29.4v-78.5zM407.6 340.1c0 4 2.2 6 6 6l47.6-.1v28.2h-54.4c-15.2 0-29.2-13.7-29.2-29v-85.3c0-15.3 14-29 29.2-29h54.4V259l-47.6.1c-3.8 0-6 1.9-6 6zM76.1 385.2H564v28H76.1zM494.1 374.2c-15.2 0-29.2-13.7-29.2-29v-85.3c0-15.3 14-29 29.2-29h40.7c15.3 0 29.2 13.7 29.2 29v85.3c0 15.3-13.9 29-29.2 29zm33.9-28.1c3.8 0 5.9-1.9 5.9-6v-75.2c0-4-2.1-6-5.9-6h-27.1c-3.8 0-6 1.9-6 6v75.2c0 4 2.2 6 6 6zM588.5 227.6c7 0 12.9 5.5 12.9 12.7 0 7.3-5.9 12.9-12.9 12.9s-12.9-5.5-12.9-12.9c0-7.1 5.9-12.7 12.9-12.7m0 23.8c5.9 0 10.5-4.7 10.5-11 0-6.1-4.6-10.9-10.5-10.9-6 0-10.6 4.7-10.6 10.9 0 6.3 4.6 11 10.6 11m-5-18.4h5.8c3.6 0 5.3 1.4 5.3 4.3 0 2.7-1.7 3.8-3.9 4.1l4.3 6.6h-2.5l-4.1-6.4h-2.5v6.4h-2.3v-15zm2.4 6.6h2.4c2.1 0 4-.1 4-2.5 0-2-1.7-2.3-3.3-2.3h-3.1z" class="st1"/></svg>