<svg xmlns="http://www.w3.org/2000/svg" height="150" viewBox="86.7 1070.1 2326.6 359.6" width="300" xmlns:v="https://vecta.io/nano"><path d="M357.4 1319.4c0 89.9-81.4 110.3-158.3 110.3-46.4 0-89.5-9.3-112.4-16.7l10.7-78.6c23.6 13 59.6 25.3 101.8 25.3 29.2 0 63.1-5.8 63.1-32.5 0-61.7-174.8-26.4-174.8-152.3 0-83.5 77-104.8 146.5-104.8 45 0 79.3 7.6 105.9 16l-8.8 74.4c-24.1-10.2-55.2-20.4-89.9-20.4-23.2 0-59.3 1.6-59.3 31.8-.2 54.8 175.5 26.5 175.5 147.5zm315-242.4v70.2h-99.2v276.1H481v-276.1h-99.5V1077zm1740.9 0l-127 215.8v130.5H2194v-130.5L2066.1 1077h106.1l68 138.8 67-138.8zm-1028 294.1v52.2h-75.6L1159 1236.7v186.6h-88.8V1077h76.1zm0-294.1v175.2L1243.9 1077zm646 277.2v69.1h-260.1V1077H2026v67.9h-160v69.1h145.6v69H1866v71.2zm-315.7-2.3v71.4h-246.2V1077h94.8v274.9zm-825-274.9H783.5l-127 346.3h90.2L770 1354h129.8l22.5 69.3h97.1zm-99.5 211.6l45-139.1 43.3 139.1zm1542 92.4c12 0 21.5 9.3 21.5 21.1s-9.5 21.3-21.6 21.3-21.7-9.4-21.7-21.3c0-11.8 9.6-21.1 21.8-21.1zm-.2 4.2c-9.2 0-16.2 7.6-16.2 16.9 0 9.4 7.1 16.9 16.5 16.9 9.2.1 16.1-7.5 16.1-16.7 0-9.3-7-17-16.2-17h-.2zm-3.3 27.8h-4.8v-21.1c1.9-.3 4.6-.6 8.1-.6 4 0 5.8.6 7.2 1.7 1.3.9 2.2 2.4 2.2 4.5 0 2.6-1.9 4.2-4.4 5v.3c2.1.7 3.1 2.3 3.7 5.1.7 3.2 1.2 4.4 1.6 5.1h-5.1c-.6-.7-1-2.6-1.7-5.1-.4-2.2-1.7-3.2-4.4-3.2h-2.3v8.3zm.2-11.8h2.3c2.7 0 4.9-.9 4.9-3.1 0-2-1.5-3.2-4.5-3.2-1.3 0-2.2.1-2.7.3z"/></svg>