<svg xmlns="http://www.w3.org/2000/svg" width="300" height="200" viewBox="0 0 28.84 13.84" xmlns:v="https://vecta.io/nano"><path d="M.72 4.169c.241-1.131.217-2.97.217-2.97 0-.593.118-1.062.606-1.067.338 0 .618.247.607 1.069L1.993 3.12l.565.001.002-1.919c0-.593.432-1.067.979-1.067s.986.471.986 1.065v1.924l.563-.002-.157-1.922c-.011-.822.269-1.06.607-1.06.488.005.606.464.606 1.058 0 0-.027 1.843.214 2.974.136.637 1.068 2.269.27 2.364-.522.072-.987-.492-1.228-1.209-.094-.28-.183-.978-.261-1.718l-.616-.001v1.832c0 .594-.436 1.07-.984 1.07s-.982-.479-.982-1.072L2.56 3.61l-.615-.001c-.078.741-.178 1.439-.267 1.721-.21.664-.76 1.407-1.342 1.173C-.243 6.26.584 4.808.72 4.17m5.637 5.497c-.241 1.131-.216 2.975-.216 2.975 0 .593-.116 1.057-.604 1.062-.338 0-.614-.24-.603-1.062l.156-1.923-.569-.001v1.925c0 .593-.434 1.064-.981 1.064s-.982-.469-.982-1.062v-1.925l-.566-.001.156 1.925c.011.822-.27 1.065-.608 1.065-.488-.005-.603-.47-.603-1.064 0 0 .027-1.843-.214-2.974C.585 9.033-.346 7.403.453 7.308c.522-.072.98.485 1.221 1.202.094.28.185.985.262 1.725l.622-.001-.001-1.832c0-.593.433-1.065.98-1.065s.985.472.985 1.065l-.002 1.833.619-.001.265-1.722c.209-.664.756-1.405 1.339-1.172.578.244-.249 1.691-.385 2.328" fill="#00a883"/><path d="M10.213 9.906L9.006 5.42H8.57l.004-1.151 2.268-.001v1.147h-.472l.56 2.345.819-3.491h1.213l.8 3.585.57-2.433-.472-.002.001-1.144 2.263-.003-.008 1.142h-.428l-1.213 4.492-1.252.001-.874-3.539-.867 3.538zm6.798-2.614c.143-.468.523-.752.984-.752a.96.96 0 0 1 .987.755zm3.289.429c0-.484-.123-.896-.377-1.269-.429-.635-1.129-1.009-1.93-1.009-.635 0-1.214.225-1.651.654s-.668.99-.668 1.626a2.2 2.2 0 0 0 .666 1.624c.453.453.989.658 1.656.658.961 0 1.747-.494 2.135-1.384l-1.484-.001c-.199.167-.411.253-.657.253-.469 0-.857-.272-.961-.667l3.236.008a3.53 3.53 0 0 0 .036-.492"/><path d="M21.109 8.755l-.558.001.003 1.15h2.268V8.762l-.504.001.001-.89c0-.794.301-1.15 1.111-1.19l.009-1.196c-.548.016-.924.236-1.169.72l-.003-.647-1.651-.001-.005 1.121.498.002zm4.828.055c-.603 0-1.048-.453-1.048-1.088s.443-1.098 1.047-1.098 1.049.463 1.049 1.098-.445 1.088-1.048 1.088m2.279-.053l-.002-2.075.489.002-.003-1.135-1.659-.001-.001.554c-.326-.429-.745-.625-1.332-.625-1.222 0-2.135.937-2.135 2.247s.913 2.234 2.135 2.234c.564 0 .98-.193 1.274-.566l.002.503h1.721l.005-1.14z"/></svg>