<svg xmlns="http://www.w3.org/2000/svg" width="2500" height="2500" viewBox="0 0 192.756 192.756"><g fill-rule="evenodd" clip-rule="evenodd"><path fill="#fff" d="M0 0h192.756v192.756H0z"/><path fill="#1b9b94" d="M8.504 88.239v45.928l175.748-24.792-.201-45.777z"/><path fill="#fff22d" d="M184.051 63.948v-5.359L8.504 83.181v5.409z"/><path fill="#fff" d="m18.671 102.212 6.161-.9 1.702 16.627h.05l1.954-17.128 6.661-.953 1.903 16.579h.051l1.753-17.08 6.01-.851-4.108 23.09-7.262 1.051-1.652-16.628h-.101l-1.753 17.129-7.212 1.002zm34.809-5.559c4.308-.601 7.463.901 7.463 5.76v10.217c0 4.858-3.155 7.213-7.463 7.813v-4.908c1.102-.149 1.453-.751 1.453-2.104v-10.167c0-1.353-.351-1.854-1.453-1.703zm-7.463 7.864c0-4.858 3.155-7.262 7.463-7.863v4.908c-1.052.15-1.402.751-1.402 2.104v10.168c0 1.352.351 1.853 1.402 1.702v4.908c-4.308.602-7.463-.851-7.463-5.71zm23.49-18.131v31.203l-6.06.851V87.237zm9.666 12.371v17.43l-6.06.901v-17.48l-2.104.25V94.8l2.104-.3v-2.805c0-4.257 1.903-6.11 5.66-6.611l3.606-.501v5.059l-1.402.2c-1.253.15-1.804.651-1.804 1.903v1.903l3.206-.451v5.108zm18.932 5.76v3.355c0 4.457-2.604 6.661-7.212 7.312-4.758.651-7.212-1.202-7.212-5.259v-11.27c0-3.956 2.454-6.561 7.212-7.262 4.608-.651 7.212.851 7.212 5.209v2.955l-5.459.751v-2.505c0-1.102-.551-1.652-1.452-1.553-.902.15-1.453.853-1.453 1.954v10.468c0 1.102.551 1.702 1.453 1.553.901-.101 1.452-.852 1.452-1.954v-2.955zm2.206-13.824 5.809-.852v4.458h.1c1.652-4.006 2.705-4.808 5.059-5.509v7.562h-.1c-.4-.05-.752 0-1.152.05-2.053.301-3.656 1.954-3.656 4.659v11.318l-6.059.852zm19.38-3.355c.152 0 .25-.051.402-.051 4.557-.65 7.111 1.102 7.111 4.658v13.223c0 2.003.4 3.104.701 4.156l-5.859.853c-.301-.701-.4-1.554-.4-2.404h-.051c-.451 1.252-1.102 2.104-1.904 2.704v-4.257c.102-.05.201-.05.301-.05.451-.051 1.152-.602 1.152-1.604v-5.059c-.551.451-1.051.852-1.453 1.202v-4.858c1.002-.551 1.703-1.252 1.703-2.554 0-.852-.4-1.703-1.352-1.553-.15 0-.25.05-.352.05v-4.456zm-6.711 8.764v-2.153c0-3.456 2.404-5.86 6.711-6.611v4.458c-1.252.35-1.451 1.302-1.451 3.556zm6.711 14.375v-4.257c-.9 0-1.451-.451-1.451-1.703v-.551c0-1.754.5-2.454 1.451-3.256v-4.858c-2.654 1.502-7.512 1.853-7.512 8.514v1.353c0 4.657 1.652 6.21 5.059 5.76.901-.151 1.752-.452 2.453-1.002m17.381-19.934v17.479l-6.012.852V91.395l-2.104.3v-5.058l2.104-.301v-2.805c0-4.257 1.904-6.11 5.66-6.611l3.557-.501v5.059l-1.402.2c-1.252.15-1.803.651-1.803 1.903v1.903l3.205-.45v5.058zm6.961-12.021 6.061-.852v6.011l3.256-.501v5.109l-3.256.45v9.166c0 2.454.25 2.755 1.602 2.554l1.654-.199v5.509l-5.961.802c-2.254.351-3.355-1.002-3.355-3.355V89.591l-1.902.25v-5.059l1.902-.25v-6.01z"/><path fill="#f8f8f8" d="M159.691 73.672q1.133 0 2.213.582a4.14 4.14 0 0 1 1.682 1.664q.602 1.083.602 2.257 0 1.163-.594 2.237a4.2 4.2 0 0 1-1.662 1.667q-1.072.594-2.24.593c-1.168-.001-1.525-.198-2.24-.593a4.2 4.2 0 0 1-1.666-1.667 4.54 4.54 0 0 1-.596-2.237q0-1.174.604-2.257a4.16 4.16 0 0 1 1.686-1.664q1.077-.582 2.211-.582m0 .739a3.84 3.84 0 0 0-1.85.487q-.9.487-1.406 1.392a3.8 3.8 0 0 0-.508 1.885q0 .974.498 1.867.5.894 1.395 1.392a3.8 3.8 0 0 0 1.871.499 3.8 3.8 0 0 0 1.869-.499 3.5 3.5 0 0 0 1.393-1.392 3.8 3.8 0 0 0 .496-1.867q0-.98-.504-1.885a3.5 3.5 0 0 0-1.408-1.392 3.84 3.84 0 0 0-1.846-.487m-1.98 6.261v-4.869h1.676q.857 0 1.244.135.383.135.611.471c.228.336.229.462.229.714q-.001.534-.383.931-.384.396-1.018.444.257.108.414.257.293.288.719.964l.594.952h-.945l-.434-.767q-.513-.909-.832-1.134-.217-.166-.631-.165h-.463v2.065h-.781zm.781-2.739h.971q.697 0 .951-.205a.66.66 0 0 0 .252-.543.66.66 0 0 0-.121-.389.73.73 0 0 0-.34-.256q-.217-.084-.803-.084h-.91z"/></g></svg>